<svg width="32" height="32" viewBox="0 0 32 32" fill="none" xmlns="http://www.w3.org/2000/svg">
<rect width="32" height="32" rx="3" fill="white"/>
<path d="M26.125 2V2.79096L11.1592 29.0904H17.6969C18.7997 29.0904 19.758 28.9586 20.5719 28.6949C21.4121 28.4049 22.1079 27.9699 22.6592 27.3898C23.2369 26.7834 23.6964 25.9793 24.0377 24.9774C24.379 23.9755 24.6153 22.7495 24.7466 21.2994H25.6524C25.5736 22.1431 25.5343 23.2505 25.5343 24.6215C25.5343 25.1488 25.5474 25.9134 25.5736 26.9153C25.6261 27.9171 25.7049 28.9454 25.8099 30C24.8385 29.9473 23.7751 29.9209 22.6199 29.9209C21.4646 29.8945 20.3094 29.8814 19.1541 29.8814C18.0251 29.8814 16.9749 29.8814 16.0034 29.8814C14.4018 29.8814 12.7215 29.8945 10.9623 29.9209C9.2032 29.9209 7.54909 29.9473 6 30V29.209L21.0445 2.90961H14.5068C13.3516 2.90961 12.367 3.04143 11.5531 3.30508C10.7654 3.56874 10.0959 3.99058 9.54452 4.57062C9.0194 5.15066 8.59931 5.94162 8.28424 6.9435C7.96918 7.91902 7.73287 9.11864 7.57534 10.5424H6.66951C6.72203 10.1469 6.74829 9.67232 6.74829 9.11864C6.77454 8.56497 6.78767 7.98493 6.78767 7.37853C6.78767 6.85122 6.76141 6.08663 6.7089 5.08475C6.68264 4.08286 6.61701 3.05461 6.51199 2C7.45719 2.02637 8.48116 2.05273 9.5839 2.0791C10.7129 2.10546 11.8288 2.11864 12.9315 2.11864C14.0605 2.11864 15.0845 2.11864 16.0034 2.11864C17.605 2.11864 19.3116 2.11864 21.1233 2.11864C22.9349 2.09228 24.6022 2.05273 26.125 2Z" fill="#2E69FF"/>
</svg>
