<svg width="60" height="60" viewBox="0 0 60 60" fill="none" xmlns="http://www.w3.org/2000/svg">
<g clip-path="url(#clip0_235_18)">
<path d="M45.0775 41.5425L55.785 52.2475L52.2475 55.785L41.5425 45.0775C37.5593 48.2706 32.605 50.0073 27.5 50C15.08 50 5 39.92 5 27.5C5 15.08 15.08 5 27.5 5C39.92 5 50 15.08 50 27.5C50.0073 32.605 48.2706 37.5593 45.0775 41.5425ZM40.0625 39.6875C43.2353 36.4247 45.0072 32.0511 45 27.5C45 17.83 37.1675 10 27.5 10C17.83 10 10 17.83 10 27.5C10 37.1675 17.83 45 27.5 45C32.0511 45.0072 36.4247 43.2353 39.6875 40.0625L40.0625 39.6875ZM25 25V17.5H30V25H37.5V30H30V37.5H25V30H17.5V25H25Z" fill="#7CA5FF"/>
</g>
<defs>
<clipPath id="clip0_235_18">
<rect width="60" height="60" fill="white"/>
</clipPath>
</defs>
</svg>
